<svg width="185" height="24" viewBox="0 0 185 24" fill="none" xmlns="http://www.w3.org/2000/svg">
<path d="M173.677 0.851562H179.368C181.031 0.851562 182.32 1.36313 183.237 2.38626C184.175 3.40939 184.644 4.70962 184.644 6.28694C184.644 7.07561 184.494 7.93887 184.196 8.87674C183.557 10.8377 182.565 12.3298 181.222 13.3529C179.88 14.3761 178.238 14.8876 176.299 14.8876H173.933L171.055 23.5523H166.003L173.677 0.851562ZM176.618 11.0829C177.279 11.0829 177.865 10.8164 178.377 10.2835C178.91 9.72935 179.304 9.01529 179.56 8.14137C179.73 7.52323 179.816 6.99035 179.816 6.54273C179.816 5.96722 179.688 5.50894 179.432 5.16789C179.198 4.82685 178.825 4.65633 178.313 4.65633H177.322L175.212 11.0829H176.618Z" fill="black"/>
<path d="M166.703 17.5734C165.936 19.8328 164.902 21.474 163.602 22.4972C162.323 23.499 160.767 23.9999 158.934 23.9999C157.378 23.9999 156.067 23.5629 155.001 22.689C153.957 21.7938 153.435 20.5468 153.435 18.9482C153.435 18.0956 153.605 17.1577 153.946 16.1346L159.03 0.851562H164.082L158.582 17.3176C158.412 17.8718 158.326 18.3194 158.326 18.6604C158.326 19.0654 158.412 19.3851 158.582 19.6196C158.774 19.8541 159.051 19.9713 159.413 19.9713C159.946 19.9713 160.394 19.7475 160.756 19.2999C161.119 18.8309 161.438 18.1702 161.716 17.3176L167.215 0.851562H172.267L166.703 17.5734Z" fill="black"/>
<path d="M144.238 23.968C142.384 23.968 141.03 23.4352 140.178 22.3694C139.325 21.2823 138.899 19.8009 138.899 17.9252C138.899 15.9642 139.325 13.6834 140.178 11.083C141.308 7.56598 142.704 4.91223 144.366 3.12175C146.029 1.33127 147.862 0.436035 149.866 0.436035C151.72 0.436035 153.074 0.979573 153.926 2.06665C154.779 3.13241 155.205 4.60316 155.205 6.4789C155.205 8.4399 154.779 10.7206 153.926 13.3211C152.796 16.8381 151.4 19.4918 149.738 21.2823C148.075 23.0728 146.242 23.968 144.238 23.968ZM144.75 19.9075C145.325 19.9075 145.933 19.3639 146.572 18.2769C147.233 17.1898 148.011 15.2608 148.906 12.4898C149.887 9.50566 150.377 7.3848 150.377 6.1272C150.377 5.04012 150.036 4.49659 149.354 4.49659C148.779 4.49659 148.16 5.04012 147.5 6.1272C146.86 7.21427 146.093 9.1433 145.198 11.9143C144.217 14.8558 143.727 16.9766 143.727 18.2769C143.727 19.3639 144.068 19.9075 144.75 19.9075Z" fill="black"/>
<path d="M135.497 0.851562C137.117 0.851562 138.385 1.35247 139.302 2.35429C140.218 3.3561 140.676 4.62436 140.676 6.15905C140.676 6.94771 140.527 7.81098 140.229 8.74885C139.312 11.5838 137.671 13.4062 135.305 14.2162L135.561 23.5523H130.637L130.733 14.6638H130.093L127.152 23.5523H122.228L129.774 0.851562H135.497ZM132.555 10.955C133.301 10.955 133.941 10.6992 134.474 10.1876C135.028 9.65475 135.422 8.962 135.657 8.10939C135.806 7.46994 135.88 6.94771 135.88 6.54273C135.88 5.96722 135.753 5.50894 135.497 5.16789C135.262 4.82685 134.9 4.65633 134.41 4.65633H133.419L131.308 10.955H132.555Z" fill="black"/>
<path d="M118.361 10.6993H125.267L120.983 23.5524H117.37L117.689 21.7299C117.114 22.4333 116.528 22.9449 115.931 23.2646C115.355 23.563 114.684 23.7122 113.917 23.7122C112.595 23.7122 111.615 23.2327 110.975 22.2735C110.357 21.293 110.048 19.9501 110.048 18.2449C110.048 16.1986 110.485 13.8113 111.359 11.083C113.682 3.96369 116.965 0.404053 121.206 0.404053C122.933 0.404053 124.233 0.958248 125.107 2.06664C126.002 3.15372 126.503 4.58183 126.61 6.351L122.102 7.85372C122.016 6.61744 121.856 5.75417 121.622 5.26392C121.409 4.77367 121.11 4.52855 120.727 4.52855C120.045 4.52855 119.373 5.06143 118.712 6.12719C118.073 7.19295 117.295 9.12198 116.378 11.9143C115.505 14.6 115.068 16.6462 115.068 18.0531C115.068 19.2254 115.387 19.8116 116.027 19.8116C116.666 19.8116 117.263 19.3746 117.817 18.5007C118.371 17.6267 118.862 16.5503 119.288 15.2714L119.384 14.9837H116.954L118.361 10.6993Z" fill="black"/>
<path d="M96.5602 23.968C94.7057 23.968 93.3522 23.4352 92.4996 22.3694C91.647 21.2823 91.2207 19.8009 91.2207 17.9252C91.2207 15.9642 91.647 13.6834 92.4996 11.083C93.6293 7.56598 95.0255 4.91223 96.6881 3.12175C98.3506 1.33127 100.184 0.436035 102.187 0.436035C104.042 0.436035 105.395 0.979573 106.248 2.06665C107.101 3.13241 107.527 4.60316 107.527 6.4789C107.527 8.4399 107.101 10.7206 106.248 13.3211C105.118 16.8381 103.722 19.4918 102.059 21.2823C100.397 23.0728 98.5638 23.968 96.5602 23.968ZM97.0717 19.9075C97.6472 19.9075 98.2547 19.3639 98.8942 18.2769C99.555 17.1898 100.333 15.2608 101.228 12.4898C102.209 9.50566 102.699 7.3848 102.699 6.1272C102.699 5.04012 102.358 4.49659 101.676 4.49659C101.1 4.49659 100.482 5.04012 99.8214 6.1272C99.1819 7.21427 98.4146 9.1433 97.5194 11.9143C96.5389 14.8558 96.0486 16.9766 96.0486 18.2769C96.0486 19.3639 96.3896 19.9075 97.0717 19.9075Z" fill="black"/>
<path d="M84.7954 10.6993H91.7015L87.4171 23.5524H83.8042L84.1239 21.7299C83.5484 22.4333 82.9622 22.9449 82.3654 23.2646C81.7899 23.563 81.1185 23.7122 80.3511 23.7122C79.0296 23.7122 78.0491 23.2327 77.4096 22.2735C76.7915 21.293 76.4824 19.9501 76.4824 18.2449C76.4824 16.1986 76.9194 13.8113 77.7933 11.083C80.1167 3.96369 83.3992 0.404053 87.6409 0.404053C89.3675 0.404053 90.6677 0.958248 91.5416 2.06664C92.4369 3.15372 92.9378 4.58183 93.0443 6.351L88.5362 7.85372C88.4509 6.61744 88.2911 5.75417 88.0566 5.26392C87.8434 4.77367 87.545 4.52855 87.1613 4.52855C86.4793 4.52855 85.8078 5.06143 85.1471 6.12719C84.5076 7.19295 83.7296 9.12198 82.813 11.9143C81.9391 14.6 81.5022 16.6462 81.5022 18.0531C81.5022 19.2254 81.8219 19.8116 82.4613 19.8116C83.1008 19.8116 83.6976 19.3746 84.2518 18.5007C84.806 17.6267 85.2963 16.5503 85.7226 15.2714L85.8185 14.9837H83.3886L84.7954 10.6993Z" fill="black"/>
<path d="M71.0571 14.7597C71.0998 14.6105 71.1957 14.2695 71.3449 13.7366C71.5154 13.2037 71.6966 12.6708 71.8884 12.138L75.5973 0.851562H80.2333L72.6878 23.5523H67.3163L68.0197 11.8182C68.0623 11.0509 68.105 10.4434 68.1476 9.99579C68.1902 9.52686 68.2222 9.21779 68.2435 9.06858C68.2009 9.21779 68.0943 9.55883 67.9238 10.0917C67.7746 10.6246 67.6041 11.1575 67.4122 11.6903L63.5115 23.5523H58.8755L66.4211 0.851562H71.9204L71.249 12.0101L71.0571 14.7597Z" fill="black"/>
<path d="M61.6963 0.851562L58.4031 23.5523H53.5433L54.2467 19.4597H50.1861L48.2677 23.5523H43.1201L54.8861 0.851562H61.6963ZM55.014 15.1754L56.2609 8.07742L56.7725 5.35973C56.3462 6.40418 55.9732 7.24613 55.6535 7.88558L52.2324 15.1754H55.014Z" fill="black"/>
<path d="M43.5329 6.51075C43.4477 7.93887 43.373 8.85543 43.3091 9.26041C43.5649 8.66359 43.9805 7.84295 44.556 6.79851L47.7853 0.851562H53.4445L43.6608 15.8468L41.103 23.5523H36.0513L38.737 15.4631L38.8009 0.851562H43.7887L43.5329 6.51075Z" fill="black"/>
<g clip-path="url(#clip0_3807_18945)">
<path d="M28.1674 1.04639H22.4806C20.2456 1.04639 18.2611 2.48405 17.5565 4.61295L16.275 8.47321C15.5833 10.5713 14.3778 12.0398 11.1893 12.0398C8.34672 12.0398 7.90231 11.1035 8.57297 9.07683L9.97731 4.87257C10.6803 2.74854 9.40846 1.04639 7.6389 1.04639H6.71614C4.47955 1.04639 2.49505 2.48405 1.79046 4.61295L0.177654 9.49872C-0.379879 11.1846 0.294009 12.9257 3.30307 12.9257C5.7142 12.9257 5.94529 13.7857 5.25363 15.8757L4.03675 19.5526C3.24813 21.9363 4.54096 23.5524 6.31052 23.5524H9.21454C11.4495 23.5524 13.434 22.1147 14.1386 19.9858L15.2989 16.4939C16.0084 14.3488 17.5274 12.9274 20.223 12.9274H24.0902C26.3251 12.9274 28.3096 11.4897 29.0142 9.36079L30.5268 4.79793C31.2233 2.69337 29.9338 1.04801 28.1642 1.04801L28.1674 1.04639Z" fill="black"/>
</g>
<defs>
<clipPath id="clip0_3807_18945">
<rect width="30.7225" height="22.506" fill="white" transform="translate(0 1.04639)"/>
</clipPath>
</defs>
</svg>
